<?xml version="1.0" encoding="UTF-8"?>
<svg width="1085px" height="623px" viewBox="0 0 1085 623" version="1.1" xmlns="http://www.w3.org/2000/svg" xmlns:xlink="http://www.w3.org/1999/xlink">
    <defs></defs>
    <g id="Page-1" stroke="none" stroke-width="1" fill="none" fill-rule="evenodd" opacity="0.200000003">
        <g id="Engagement-dashboard" transform="translate(-11.000000, -457.000000)" fill-rule="nonzero">
            <g id="VG-BHAG" transform="translate(0.000000, 457.000000)">
                <g id="Group">
                    <path d="M762.622095,1057.4983 C759.203209,1050.24007 761.561199,1040.73591 754.811503,1033.06533 C749.787264,1036.7605 744.927162,1048.12225 738.954122,1032.65297 C734.826639,1021.95979 722.139932,1020.50254 711.218716,1020.23031 C653.20576,1018.77706 595.188801,1017.27577 537.167838,1016.32696 C518.9925,1016.0307 499.944426,1017.66811 486.332939,1030.61522 C474.751166,1041.63268 471.892753,1035.37931 468.277703,1023.73332 C461.511993,1033.08134 463.861976,1044.35502 455.89125,1052.56607 C452.168108,1047.28553 448.625118,1042.26122 443.520811,1035.019 C438.304409,1049.55548 434.52522,1067.11455 413.887804,1042.80168 C419.292365,1069.52863 422.863378,1090.41455 427.871605,1110.95218 C432.019105,1127.96278 453.569291,1146.92706 307.594105,1159.74206 C211.17674,1168.20933 239.868953,1097.48062 287.088801,1107.80548 C298.438378,1110.28761 296.356622,1109.56299 300.339983,1107.09287 C293.245997,1088.28473 286.644426,1068.98816 282.993345,1047.50973 C274.245963,1049.28725 274.201926,1060.1846 265.430524,1061.28955 C257.98424,1052.10567 260.766588,1038.82627 254.241081,1027.94093 C246.690709,1030.8154 248.640355,1041.70074 238.595878,1044.60723 C233.855878,1030.4711 230.280861,1015.73845 223.827416,1002.399 C220.960997,996.469914 226.801926,979.615447 208.442432,985.892835 C205.419882,986.925722 206.008378,977.881959 205.872264,973.546237 C205.103615,948.79299 201.312416,924.496134 196.276166,900.463505 C187.817027,897.072595 188.701774,909.599347 179.726199,907.457509 C176.891807,883.661082 175.738834,858.227251 163.900845,834.310722 C156.918953,839.4111 158.300118,849.623866 148.463818,854.872371 C145.561368,833.345893 142.799037,812.832285 139.652382,789.496254 C127.406047,800.729897 121.429003,810.898625 120.356098,826.395928 C118.398446,854.688213 120.888547,893.553574 112.589544,932.755223 C108.085743,941.514742 105.607652,934.804983 104.830997,933.507869 C97.9211655,921.897904 94.8385642,890.723144 90.5909797,883.124622 C78.8210473,888.60933 62.058902,918.478969 47.5306419,922.498419 C46.5618243,922.766649 43.2790541,923.499278 42.5264189,920.368591 C39.924223,907.681701 69.3730743,877.463763 55.5974493,866.045962 C46.8500676,858.799742 14.9711655,869.993351 1.74400338,866.450309 C-0.149594595,865.945876 -0.50589527,863.447732 8.50170608,861.726254 C41.8698649,855.665052 55.8176351,836.19634 59.3486149,802.959811 C63.0117061,768.490223 66.1303378,733.940567 66.0302534,699.182732 C65.994223,686.323694 65.8020608,675.510412 46.6458953,689.862732 C54.3884291,657.074588 61.6025169,627.641323 59.0563682,595.549777 C47.9950338,600.45799 46.0734122,613.82146 32.369848,616.948144 C38.7352196,579.227766 49.0158953,543.068729 51.2978209,502.930275 C38.7592399,513.927715 30.2760811,527.171082 11.1759628,531.975206 C29.3593074,489.00232 47.4225507,449.364296 56.5422466,405.882973 C45.256723,408.625326 44.0396959,423.341959 30.9246284,422.689399 C31.5171284,420.251306 31.5731757,418.397715 32.369848,416.952474 C77.9563176,334.59378 114.87147,246.261959 191.868446,185.48579 C195.915861,182.291048 205.53598,179.00823 193.886149,171.409708 C184.762449,165.456598 195.491503,161.228969 198.293868,158.134313 C233.755794,118.936667 273.501334,84.4550687 315.352652,52.2153952 C320.212753,48.4721821 336.602584,48.3360653 326.037669,33.6554639 C324.260169,31.1853436 330.90978,30.8810825 333.728159,29.932268 C342.891892,26.849622 352.187736,29.7280928 361.851892,30.0123368 C365.302804,22.63 355.806791,17.0452062 359.690068,8.79812715 C383.181892,21.2688316 407.510422,15.9322509 431.110338,9.74694158 C487.157635,-4.94166667 541.283311,-1.51072165 595.997483,18.1301375 C652.901503,38.5596735 710.301943,58.9531787 772.682584,59.5256701 C770.456706,68.0209622 762.209747,65.2465808 756.540963,71.211701 C758.182348,71.9283162 759.815726,72.9531959 761.589223,73.3695533 C771.305422,75.6475086 781.069662,77.7132818 790.781858,79.9872337 C793.804409,80.6958419 799.8375,82.1931271 797.423463,85.0235567 C779.224105,106.365876 806.891453,96.4934021 810.094155,103.471392 C812.644307,109.028162 827.332703,105.160842 822.840912,118.732491 C821.503784,122.775962 827.312686,122.651856 830.223142,122.759948 C846.95326,123.376478 857.994578,134.606117 870.140828,143.765979 C872.250608,145.355344 875.969747,148.07768 875.605439,149.198643 C869.079932,169.424003 887.583547,167.013935 896.607162,171.497784 C925.647669,185.930172 947.309949,207.720876 964.900794,234.419794 C973.087703,246.842457 966.750355,246.934536 951.709662,243.08323 C999.986402,296.885412 1067.61547,329.853711 1080.83863,407.047973 C1071.80701,405.434588 1067.70755,396.262715 1056.32995,397.303608 C1073.96883,428.021976 1090.43473,458.488127 1094.33402,493.970584 C1081.72738,494.07067 1077.27963,482.232509 1065.9941,479.686323 C1070.61,500.432131 1080.06598,517.714966 1090.4027,534.677526 C1093.53334,539.813935 1100.72341,546.787921 1086.71559,547.460498 C1085.16628,547.536564 1082.36392,550.326959 1082.39995,550.379003 C1092.54851,565.884313 1071.98716,579.716186 1081.21895,596.754811 C1091.30747,615.374794 1098.56159,635.636186 1110.03127,653.719708 C1106.3962,683.349141 1161.10637,710.040052 1176.73155,725.857629 C1186.9762,740.213952 1173.84512,735.429845 1168.16833,732.667474 C1102.19265,700.591942 1131.89772,759.534536 1133.44302,784.367852 C1133.89541,791.618076 1135.84905,798.692148 1123.83492,793.535722 C1115.78012,790.076753 1096.59993,729.484742 1087.22002,735.674055 C1081.58726,739.389244 1092.01606,795.149107 1089.31378,817.67244 C1088.72929,822.560636 1080.27015,823.461409 1077.89615,818.897491 C1065.21745,790.653247 1047.0341,707.401787 1035.14007,680.911048 C1034.02713,681.199296 1032.91819,681.487543 1031.80525,681.77579 C1030.93252,696.020017 1030.12784,710.268247 1029.16703,724.504467 C1028.46644,734.905395 1024.40301,738.108144 1014.53068,728.191632 C1016.19208,786.617784 1010.68343,841.945275 994.081419,896.067732 C985.081824,894.454347 986.539054,884.934175 979.336976,881.134914 C975.990152,920.917062 989.76978,962.300584 966.30598,999.548557 C957.042162,997.174519 957.558598,984.767869 947.842399,981.997491 C941.485034,989.379828 940.844493,998.775893 940.848497,1007.71557 C940.856503,1021.68756 937.545709,1027.64868 921.872483,1014.17711 C921.872483,1025.695 921.816436,1034.02215 921.88049,1042.3493 C922.168733,1077.8918 930.988176,1078.26012 946.225034,1072.49117 C989.489544,1056.1011 1015.17922,1125.49667 920.499324,1128.19098 C783.848007,1132.08232 787.11076,1120.2882 788.760152,1099.21811 C789.640895,1087.94043 789.224544,1076.54665 789.14848,1065.20892 C789.084426,1055.79684 792.435253,1044.17086 777.734848,1042.41735 C766.785608,1041.11223 772.754645,1055.32043 762.622095,1057.4983 Z" id="Shape" fill="#1CBE57"></path>
                    <path d="M363.689443,303.415017 C324.836655,303.314931 286.452264,299.751873 249.188818,287.909708 C244.112534,286.296323 238.856098,284.907131 234.184155,282.457027 C229.316047,279.902835 220.808868,278.385533 223.635253,270.710945 C225.821098,264.773849 232.983142,267.648316 237.979358,268.485034 C254.40522,271.227388 270.99522,273.437285 287.100811,277.516787 C300.311959,280.86366 308.446824,278.481615 313.38299,264.905962 C316.269426,256.963144 320.885321,247.963419 330.977838,247.783265 C341.382618,247.599107 346.070574,256.995172 348.208378,264.901959 C353.08049,282.921426 365.895304,279.054107 378.24973,278.017216 C480.984426,269.397818 577.68603,237.63055 673.783125,202.640515 C699.10049,193.420601 715.482314,181.550412 720.006132,153.138024 C723.388986,131.887784 735.070845,128.596959 747.241115,145.647595 C762.986402,167.698522 777.274459,163.178643 794.681149,150.856065 C798.460338,148.18177 802.675895,145.959863 806.975524,144.242388 C811.627449,142.384794 816.135253,142.86921 819.221858,147.689347 C822.484611,152.789725 820.210693,156.805172 816.331419,159.875808 C807.984375,166.485481 799.729409,173.343368 790.741824,178.99622 C690.293057,242.166443 579.71174,277.080412 463.313514,295.320069 C430.361706,300.492509 397.133666,303.583162 363.689443,303.415017 Z" id="Shape" fill="#FEFEFE"></path>
                    <path d="M496.081166,78.2697595 C527.075321,94.071323 514.937078,117.803694 568.782517,120.662148 C580.940777,122.80799 572.569713,130.230361 561.740574,128.492869 C491.833581,119.288969 430.249611,138.057079 375.215169,181.298196 C363.809544,188.368265 367.768885,175.801478 368.313345,175.357096 C413.851774,138.325309 396.761351,138.701632 402.274003,117.387337 C407.426351,97.474244 434.997618,51.6869416 496.081166,78.2697595 Z" id="Shape" fill="#FCFCFC"></path>
                </g>
                <circle id="Oval" fill="#FE639B" cx="471" cy="100" r="25"></circle>
                <path d="M481.973062,88.2535134 C482.292807,94.2927688 479.766043,97.6375872 474.396671,97.9769166 C470.150304,98.2435325 466.976252,96.2075561 466.196387,91.5054202 C465.295643,86.0882687 467.502662,82.0324744 472.626376,81.1518338 C477.695501,80.2792725 481.084015,83.2362858 481.973062,88.2535134 Z" id="Shape" fill="#ECECEC"></path>
            </g>
        </g>
    </g>
</svg>