<?xml version="1.0" encoding="UTF-8"?>
<svg width="203px" height="100px" viewBox="0 0 203 100" version="1.1" xmlns="http://www.w3.org/2000/svg" xmlns:xlink="http://www.w3.org/1999/xlink">
    <defs></defs>
    <g id="Page-1" stroke="none" stroke-width="1" fill="none" fill-rule="evenodd">
        <g id="Engagement-dashboard" transform="translate(-40.000000, -40.000000)" fill-rule="nonzero">
            <g id="Logo" transform="translate(40.000000, 40.000000)">
                <g id="Group">
                    <g id="Shape" fill="#00C051">
                        <path d="M48.3801288,0.779285715 C36.4234701,0.779285715 26.723148,10.6585714 26.723148,22.8657143 C26.723148,35.0471428 36.4234701,44.9492857 48.3801288,44.9492857 C60.3213835,44.9492857 70.0224058,35.0471428 70.0224058,22.8657143 C70.0224058,10.6585714 60.3213835,0.779285715 48.3801288,0.779285715 L48.3801288,0.779285715 Z M48.3801288,34.4871428 C42.0707884,34.4871428 36.9804649,29.2875 36.9804649,22.8657143 C36.9804649,16.445 42.0707884,11.2253571 48.3801288,11.2253571 C54.6712646,11.2253571 59.7734911,16.445 59.7734911,22.8657143 C59.7734911,29.2875 54.6712646,34.4871428 48.3801288,34.4871428 L48.3801288,34.4871428 Z M124.254306,29.8703572 L134.447906,29.8703572 L134.447906,72.5092857 L124.254306,72.5092857 L124.254306,29.8703572 Z M10.8244644,72.7107143 L10.8244644,20.5621428 L0,24.3417857 L0,11.0064286 L24.7430332,0.278214285 L24.7430332,72.7107143 L10.8244644,72.7107143 L10.8244644,72.7107143 Z M82.3711665,2.24214285 L96.6324745,2.24214285 L67.2822434,72.7107143 L53.0223358,72.7107143 L82.3711665,2.24214285 L82.3711665,2.24214285 Z M185.608108,38.5021428 C183.177776,38.5021428 180.880128,39.0367857 178.781334,39.9703572 L178.781334,29.8707143 L168.592634,29.8707143 L168.592634,72.5082143 L178.34687,72.5082143 L178.340219,71.5046428 C180.557345,72.57 182.990477,73.2267857 185.608108,73.2267857 C195.009453,73.2267857 202.638286,65.4442857 202.638286,55.8564285 C202.638286,46.27 195.009453,38.5021428 185.608108,38.5021428 L185.608108,38.5021428 Z M185.279023,64.0432143 C180.904985,64.0432143 177.363115,60.4217857 177.363115,55.9625 C177.363115,51.4867857 180.904985,47.875 185.279023,47.875 C189.647808,47.875 193.188278,51.4867857 193.188278,55.9625 C193.188278,60.4217857 189.647808,64.0432143 185.279023,64.0432143 L185.279023,64.0432143 Z M155.869276,39.7175 L155.869276,58.6339285 C155.869276,61.1521428 153.842949,63.2114285 151.369907,63.2114285 C148.932923,63.2114285 146.92235,61.1521428 146.92235,58.6339285 L146.968212,39.7175 L136.787915,39.7175 L136.787915,58.3167857 C136.787915,66.54 143.331816,73.2264285 151.352751,73.2264285 C153.787285,73.2264285 156.033819,72.5682143 158.051043,71.495 L158.051043,72.5089285 L165.987957,72.5089285 L165.987957,39.7175 L155.869276,39.7175 L155.869276,39.7175 Z M111.80927,56.4389285 C109.92228,60.185 106.126243,62.7760715 101.703543,62.7760715 C95.4085562,62.7760715 90.3115809,57.5685715 90.3115809,51.1439285 C90.3115809,44.7085715 95.4085562,39.5157143 101.703543,39.5157143 C106.126243,39.5157143 109.92228,42.1028572 111.80927,45.8517857 L122.698151,45.8517857 C120.363745,36.2221428 111.869836,29.0560715 101.703543,29.0560715 C89.7468842,29.0560715 80.0717686,38.9503572 80.0717686,51.1439285 C80.0717686,63.3414285 89.7468842,73.2260715 101.703543,73.2260715 C111.869836,73.2260715 120.363745,66.0696428 122.698151,56.4389285 L111.80927,56.4389285 L111.80927,56.4389285 Z"></path>
                    </g>
                    <path d="M13.4609999,92.9985715 L13.8835597,92.9985715 C17.0686878,92.9985715 18.3006581,91.2032143 18.3006581,88.5282143 C18.3006581,85.5839285 16.8222238,84.0578572 13.8835597,84.0578572 L13.4609999,84.0578572 L13.4609999,92.9985715 L13.4609999,92.9985715 Z M10.8741773,81.76 L14.5697381,81.76 C18.4060355,81.76 20.9757036,84.6864285 20.9757036,88.5460715 C20.9757036,92.3521428 18.3360173,95.2964285 14.5522335,95.2964285 L10.8741773,95.2964285 L10.8741773,81.76 L10.8741773,81.76 Z M24.7759418,90.8978572 C24.7759418,92.0828572 25.549993,93.3575 26.8173226,93.3575 C28.0843019,93.3575 28.8587032,92.0828572 28.8587032,90.8978572 C28.8587032,89.6771428 28.0843019,88.4207143 26.8173226,88.4207143 C25.549993,88.4207143 24.7759418,89.6771428 24.7759418,90.8978572 L24.7759418,90.8978572 Z M31.357653,90.8978572 C31.357653,93.6267857 29.5273772,95.5835715 26.8173226,95.5835715 C24.1072678,95.5835715 22.276992,93.6267857 22.276992,90.8978572 C22.276992,88.1510715 24.1247724,86.1942857 26.8173226,86.1942857 C29.5098726,86.1942857 31.357653,88.1510715 31.357653,90.8978572 L31.357653,90.8978572 Z M33.0990057,88.51 L37.3928722,88.51 L37.3928722,90.5746428 L33.0990057,90.5746428 L33.0990057,88.51 Z M45.6987816,90.8978572 C45.6987816,89.7132143 44.9243804,88.4207143 43.6574009,88.4207143 C42.3900714,88.4207143 41.6160201,89.7132143 41.6160201,90.8978572 C41.6160201,92.0828572 42.3900714,93.3575 43.6574009,93.3575 C44.9243804,93.3575 45.6987816,92.0828572 45.6987816,90.8978572 L45.6987816,90.8978572 Z M47.8633945,94.7578572 C47.8633945,97.6303572 46.9128973,100 43.6749055,100 C41.5631565,100 39.4335527,98.6892857 39.3106708,96.3378572 L41.9149978,96.3378572 C42.03823,97.2710715 42.6893992,97.8814285 43.6220418,97.8814285 C45.3644447,97.8814285 45.3994539,96.3196428 45.3994539,94.9910715 L45.3994539,94.4164285 L45.3644447,94.4164285 C44.8361574,95.135 43.9213696,95.5835715 43.0062316,95.5835715 C40.4722728,95.5835715 39.1170704,93.3214285 39.1170704,90.9517857 C39.1170704,88.5282143 40.5601457,86.1942857 43.1294636,86.1942857 C43.9917378,86.1942857 44.8715166,86.6432143 45.3644447,87.3253572 L45.3994539,87.3253572 L45.3994539,86.4817857 L47.8633945,86.4817857 L47.8633945,94.7578572 L47.8633945,94.7578572 Z M52.2269291,90.8978572 C52.2269291,92.0828572 53.0009803,93.3575 54.2679597,93.3575 C55.5352892,93.3575 56.3096905,92.0828572 56.3096905,90.8978572 C56.3096905,89.6771428 55.5352892,88.4207143 54.2679597,88.4207143 C53.0009803,88.4207143 52.2269291,89.6771428 52.2269291,90.8978572 L52.2269291,90.8978572 Z M58.8082901,90.8978572 C58.8082901,93.6267857 56.9783643,95.5835715 54.2679597,95.5835715 C51.557905,95.5835715 49.7279793,93.6267857 49.7279793,90.8978572 C49.7279793,88.1510715 51.5757597,86.1942857 54.2679597,86.1942857 C56.9605097,86.1942857 58.8082901,88.1510715 58.8082901,90.8978572 L58.8082901,90.8978572 Z M62.5735191,90.8978572 C62.5735191,92.0828572 63.3479204,93.3575 64.6148999,93.3575 C65.8818793,93.3575 66.6562807,92.0828572 66.6562807,90.8978572 C66.6562807,89.6771428 65.8818793,88.4207143 64.6148999,88.4207143 C63.3479204,88.4207143 62.5735191,89.6771428 62.5735191,90.8978572 L62.5735191,90.8978572 Z M69.1552304,90.8978572 C69.1552304,93.6267857 67.3253046,95.5835715 64.6148999,95.5835715 C61.9048453,95.5835715 60.0745693,93.6267857 60.0745693,90.8978572 C60.0745693,88.1510715 61.9223499,86.1942857 64.6148999,86.1942857 C67.30745,86.1942857 69.1552304,88.1510715 69.1552304,90.8978572 L69.1552304,90.8978572 Z M76.9857164,90.88 C76.9857164,89.695 76.211315,88.4207143 74.9443355,88.4207143 C73.6770061,88.4207143 72.9029547,89.695 72.9029547,90.88 C72.9029547,92.065 73.6770061,93.3575 74.9443355,93.3575 C76.211315,93.3575 76.9857164,92.065 76.9857164,90.88 L76.9857164,90.88 Z M76.7392522,94.4703572 L76.7042431,94.4703572 C76.1938104,95.1889285 75.2786724,95.5835715 74.3810391,95.5835715 C71.8470803,95.5835715 70.404005,93.2317857 70.404005,90.8439285 C70.404005,88.51 71.8645847,86.1942857 74.34603,86.1942857 C75.2433132,86.1942857 76.1584512,86.5892857 76.7042431,87.2892857 L76.7392522,87.2892857 L76.7392522,80.0725 L79.2028427,80.0725 L79.2028427,95.2964285 L76.7392522,95.2964285 L76.7392522,94.4703572 L76.7392522,94.4703572 Z M93.3328665,89.1742857 C92.8049293,88.6357143 92.276992,88.3128572 91.5204453,88.3128572 C90.1298838,88.3128572 89.338328,89.6414285 89.338328,90.9339285 C89.338328,92.3164285 90.2006022,93.4653572 91.6083181,93.4653572 C92.276992,93.4653572 92.8931522,93.1242857 93.3328665,92.6214285 L93.3328665,95.045 C92.6641927,95.4221428 91.9601596,95.5835715 91.203613,95.5835715 C88.6517995,95.5835715 86.8393782,93.4471428 86.8393782,90.9160715 C86.8393782,88.295 88.7221677,86.1942857 91.326845,86.1942857 C92.0130234,86.1942857 92.7345609,86.3735715 93.3328665,86.7507143 L93.3328665,89.1742857 L93.3328665,89.1742857 Z M98.0310881,87.3971428 L98.0660972,87.3971428 C98.5590254,86.625 99.2980674,86.1942857 100.213205,86.1942857 C100.565047,86.1942857 100.916888,86.2842857 101.233721,86.41 L100.934393,88.7435715 C100.635415,88.5282143 100.283574,88.4207143 99.9138776,88.4207143 C98.2068338,88.4207143 98.0310881,89.9642857 98.0310881,91.3289285 L98.0310881,95.2964285 L95.5671474,95.2964285 L95.5671474,86.4817857 L98.0310881,86.4817857 L98.0310881,87.3971428 L98.0310881,87.3971428 Z M104.629604,90.8978572 C104.629604,92.0828572 105.404005,93.3575 106.670984,93.3575 C107.938314,93.3575 108.712365,92.0828572 108.712365,90.8978572 C108.712365,89.6771428 107.938314,88.4207143 106.670984,88.4207143 C105.404005,88.4207143 104.629604,89.6771428 104.629604,90.8978572 L104.629604,90.8978572 Z M111.211315,90.8978572 C111.211315,93.6267857 109.381039,95.5835715 106.670984,95.5835715 C103.96093,95.5835715 102.130654,93.6267857 102.130654,90.8978572 C102.130654,88.1510715 103.978434,86.1942857 106.670984,86.1942857 C109.363534,86.1942857 111.211315,88.1510715 111.211315,90.8978572 L111.211315,90.8978572 Z M116.366755,91.5621428 L118.478504,86.1942857 L119.657611,86.1942857 L121.787215,91.6339285 L123.61714,86.4817857 L126.292186,86.4817857 L122.279443,95.4760715 L121.029968,95.4760715 L119.182187,90.1078572 L117.123302,95.4760715 L115.856323,95.4760715 L111.879289,86.4817857 L114.571839,86.4817857 L116.366755,91.5621428 L116.366755,91.5621428 Z M133.523666,90.88 C133.523666,89.695 132.749265,88.4207143 131.482285,88.4207143 C130.215306,88.4207143 129.440905,89.695 129.440905,90.88 C129.440905,92.065 130.215306,93.3575 131.482285,93.3575 C132.749265,93.3575 133.523666,92.065 133.523666,90.88 L133.523666,90.88 Z M133.277202,94.4703572 L133.242193,94.4703572 C132.73176,95.1889285 131.816622,95.5835715 130.919339,95.5835715 C128.38503,95.5835715 126.941955,93.2317857 126.941955,90.8439285 C126.941955,88.51 128.402535,86.1942857 130.88363,86.1942857 C131.781263,86.1942857 132.696401,86.5892857 133.242193,87.2892857 L133.277202,87.2892857 L133.277202,80.0725 L135.741143,80.0725 L135.741143,95.2964285 L133.277202,95.2964285 L133.277202,94.4703572 L133.277202,94.4703572 Z M141.107688,95.2964285 L138.644097,95.2964285 L138.644097,88.6 L137.816832,88.6 L137.816832,86.4817857 L138.644097,86.4817857 L138.644097,83.8964285 C138.644097,81.7421428 139.523876,79.8567857 141.899593,79.8567857 C142.304299,79.8567857 142.709004,79.9467857 143.0787,80.1442857 L143.0787,82.3885715 C142.761868,82.2271428 142.445035,82.0832143 142.075689,82.0832143 C140.984455,82.0832143 141.107688,83.5375 141.107688,84.2553572 L141.107688,86.4817857 L143.0787,86.4817857 L143.0787,88.6 L141.107688,88.6 L141.107688,95.2964285 L141.107688,95.2964285 Z M147.00252,86.4817857 L147.00252,91.2567857 C147.00252,92.2625 147.160762,93.4653572 148.410236,93.4653572 C149.659712,93.4653572 149.817953,92.2625 149.817953,91.2567857 L149.817953,86.4817857 L152.281893,86.4817857 L152.281893,91.6696428 C152.281893,94.2371428 150.979554,95.5835715 148.410236,95.5835715 C145.840919,95.5835715 144.53858,94.2371428 144.53858,91.6696428 L144.53858,86.4817857 L147.00252,86.4817857 L147.00252,86.4817857 Z M157.173365,87.2892857 L157.208724,87.2892857 C157.718807,86.4992857 158.581431,86.1942857 159.461209,86.1942857 C161.784064,86.1942857 162.453088,87.8639285 162.453088,89.9103572 L162.453088,95.2964285 L159.989147,95.2964285 L159.989147,90.6289285 C159.989147,89.5696428 160.042011,88.205 158.65145,88.205 C157.19087,88.205 157.173365,89.8746428 157.173365,90.9339285 L157.173365,95.2964285 L154.709424,95.2964285 L154.709424,86.4817857 L157.173365,86.4817857 L157.173365,87.2892857 L157.173365,87.2892857 Z M170.88188,90.88 C170.88188,89.695 170.107478,88.4207143 168.840499,88.4207143 C167.573169,88.4207143 166.798768,89.695 166.798768,90.88 C166.798768,92.065 167.573169,93.3575 168.840499,93.3575 C170.107478,93.3575 170.88188,92.065 170.88188,90.88 L170.88188,90.88 Z M170.635415,94.4703572 L170.600055,94.4703572 C170.089623,95.1889285 169.174485,95.5835715 168.277203,95.5835715 C165.743243,95.5835715 164.299818,93.2317857 164.299818,90.8439285 C164.299818,88.51 165.760397,86.1942857 168.241843,86.1942857 C169.139476,86.1942857 170.054264,86.5892857 170.600055,87.2892857 L170.635415,87.2892857 L170.635415,80.0725 L173.099005,80.0725 L173.099005,95.2964285 L170.635415,95.2964285 L170.635415,94.4703572 L170.635415,94.4703572 Z M175.332936,86.4817857 L177.796877,86.4817857 L177.796877,95.2964285 L175.332936,95.2964285 L175.332936,86.4817857 Z M178.025486,82.7832143 C178.025486,83.6092857 177.374318,84.2735715 176.564557,84.2735715 C175.755496,84.2735715 175.104327,83.6092857 175.104327,82.7832143 C175.104327,81.9757143 175.755496,81.2932143 176.564557,81.2932143 C177.374318,81.2932143 178.025486,81.9757143 178.025486,82.7832143 L178.025486,82.7832143 Z M182.829435,87.2892857 L182.864445,87.2892857 C183.374527,86.4992857 184.237151,86.1942857 185.11693,86.1942857 C187.439784,86.1942857 188.108808,87.8639285 188.108808,89.9103572 L188.108808,95.2964285 L185.644868,95.2964285 L185.644868,90.6289285 C185.644868,89.5696428 185.697731,88.205 184.30752,88.205 C182.846591,88.205 182.829435,89.8746428 182.829435,90.9339285 L182.829435,95.2964285 L180.365495,95.2964285 L180.365495,86.4817857 L182.829435,86.4817857 L182.829435,87.2892857 L182.829435,87.2892857 Z M196.5376,90.8978572 C196.5376,89.7132143 195.763199,88.4207143 194.496219,88.4207143 C193.228889,88.4207143 192.454488,89.7132143 192.454488,90.8978572 C192.454488,92.0828572 193.228889,93.3575 194.496219,93.3575 C195.763199,93.3575 196.5376,92.0828572 196.5376,90.8978572 L196.5376,90.8978572 Z M198.702212,94.7578572 C198.702212,97.6303572 197.752065,100 194.513723,100 C192.401974,100 190.27272,98.6892857 190.149489,96.3378572 L192.753816,96.3378572 C192.877049,97.2710715 193.528218,97.8814285 194.460859,97.8814285 C196.203264,97.8814285 196.238272,96.3196428 196.238272,94.9910715 L196.238272,94.4164285 L196.203264,94.4164285 C195.674976,95.135 194.760188,95.5835715 193.84505,95.5835715 C191.311091,95.5835715 189.955538,93.3214285 189.955538,90.9517857 C189.955538,88.5282143 191.398964,86.1942857 193.968281,86.1942857 C194.830555,86.1942857 195.710335,86.6432143 196.203264,87.3253572 L196.238272,87.3253572 L196.238272,86.4817857 L198.702212,86.4817857 L198.702212,94.7578572 L198.702212,94.7578572 Z" id="Shape" fill="#FF619A"></path>
                </g>
            </g>
        </g>
    </g>
</svg>